# xmcd
#
# Track frame offsets:
#	150
#	18884
#	35141
#	53520
#	70000
#	83444
#	99023
#	123746
#	144827
#	157612
#	178842
#	196546
#	209600
#	228306
#	249097
#
# Disc length: 3487 seconds
#
# Revision: 0
# Processed by: cddbd v1.5.2PL0 Copyright (c) Steve Scherf et al.
# Submitted via: EasyCDDAExtractor 8.2.3.1
#
DISCID=ac0d9d0f
DTITLE=Bonnie Raitt - Live In The Rainbow Room  Philadelphia - 1972
DYEAR=1972
DGENRE=Blues
TTITLE0=Mighty Tight Woman [Live-72]
TTITLE1=Rollin ' and Tumblin [Live-72]
TTITLE2=Any Day Woman [Live-72]
TTITLE3=Women Be Wise [Live-72]
TTITLE4=Thank You [Live-72]
TTITLE5=Bluebird [Live-72]
TTITLE6=Finest Lovin'  Man [Live-72]
TTITLE7=Big Road [Live-72]
TTITLE8=Stayed Away Too Long At The Fair [Live-72]
TTITLE9=Under The Fallen Sky [Live-72]
TTITLE10=Walkin' Blues [Live-72]
TTITLE11=Can't Find My Way Home [Live-72]
TTITLE12=Blow Your Horn [Live-72]
TTITLE13=Blender Blues [Live-72]
TTITLE14=Since I Fell For You [Live-72]
EXTD=
EXTT0=
EXTT1=
EXTT2=
EXTT3=
EXTT4=
EXTT5=
EXTT6=
EXTT7=
EXTT8=
EXTT9=
EXTT10=
EXTT11=
EXTT12=
EXTT13=
EXTT14=
PLAYORDER=
